# xmcd CD database file
#
# Track frame offsets:
#	150
#	11467
#	25165
#	44460
#	55663
#	64930
#	75391
#	84165
#	97281
#	116191
#	127695
#	143256
#
# Disc length: 2083 seconds
#
# Revision: 0
# Processed by: cddbd v1.5.2PL0 Copyright (c) Steve Scherf et al.
# Submitted via: CDex 1.75
#
DISCID=8c08210c
DTITLE=Chico Randall - Relax'n With Chico Randall
DYEAR=1960
DGENRE=Jazz
TTITLE0=There Will Never Be Another You
TTITLE1=Our Love Is Here To Stay
TTITLE2=Billy Boy
TTITLE3=When I Fall In Love
TTITLE4=Lullaby Of Birdland
TTITLE5=It Might As Well Be Spring
TTITLE6=This Can't Be Love
TTITLE7=Willow Weep For Me
TTITLE8=B.C. Blues
TTITLE9=Spring Is Here
TTITLE10=If I Were A Bell
TTITLE11=Gypsy In My Soul
EXTD=YEAR: 1960
EXTT0=
EXTT1=
EXTT2=
EXTT3=
EXTT4=
EXTT5=
EXTT6=
EXTT7=
EXTT8=
EXTT9=
EXTT10=
EXTT11=
PLAYORDER=
